<svg width="1143" height="1143" viewBox="0 0 1143 1143" fill="none" xmlns="http://www.w3.org/2000/svg">
<path d="M713.458 46.1055C742.801 120.025 742.799 120.027 701.269 187.855C775.189 158.512 775.193 158.51 843.019 200.037C813.676 126.117 813.673 126.119 855.2 58.2915C781.281 87.637 781.285 87.6348 713.458 46.1055ZM252.301 84.8735C225.942 131.841 225.942 131.841 172.555 138.932C219.522 165.293 219.522 165.291 226.614 218.681C252.973 171.713 252.973 171.713 306.36 164.622C259.393 138.263 259.393 138.263 252.301 84.8735ZM423.181 210.292C421.056 323.218 421.061 323.218 329.446 389.275C442.37 391.396 442.372 391.396 508.43 483.009C510.55 370.082 510.55 370.082 602.163 304.025C489.237 301.904 489.237 301.904 423.179 210.292H423.181ZM849.941 335.042C849.839 388.9 849.834 388.896 806.686 421.128C860.544 421.233 860.544 421.23 892.776 464.378C892.881 410.522 892.879 410.525 936.027 378.293C882.171 378.188 882.173 378.19 849.941 335.042ZM439.01 522.286C436.352 522.339 433.742 522.442 431.215 522.585C389.715 524.96 337.754 541.372 258.337 572.936L169.68 967.875C344.884 921.591 466.505 918.968 551.377 957.573V552.957C511.026 533.284 480.412 523.047 447.114 522.292C444.414 522.237 441.713 522.236 439.013 522.288L439.01 522.286ZM712.879 547.778C706.37 547.72 699.91 547.803 693.874 547.997C665.278 548.928 632.178 552.941 591.546 558.091V953.505C688.795 936.038 830.065 944.13 973.81 970.395L885.01 574.842C804.863 556.158 758.688 548.256 712.879 547.78V547.778ZM717.989 585.615C760.155 586.071 800.253 591.794 837.878 596.821L847.783 633.705C794.699 625.334 700.528 622.754 641.371 631.518L639.951 591.772C666.647 586.964 692.689 585.343 717.989 585.615ZM158.842 596.013L135.142 698.707H188.926L211.977 596.013H158.842ZM930.944 596.013L1024.66 1013.46L1075.09 1013.12L983.887 596.013H930.944ZM754.913 725.083C792.846 725.141 830.074 726.849 864.621 730.046L872.487 768.383C799.615 761.507 710.469 761.934 642.574 768.383L640.991 730.046C678.344 726.624 716.978 725.028 754.913 725.083ZM125.874 738.879L110.417 805.856H164.871L179.906 738.879H125.874ZM738.45 799.695C748.844 799.742 759.628 799.885 771.3 800.148L777.004 839.208C732.425 838.157 671.83 840.459 643.674 841.552L642.112 801.405C679.621 800.304 707.27 799.557 738.45 799.695ZM831.036 800.693C849.492 800.787 868.308 801.438 884.881 800.847L890.64 840.447C871.324 839.751 835.123 838.595 819.064 839.327L812.798 800.856C818.876 800.705 824.956 800.651 831.036 800.693ZM101.149 846.028L61.0014 1019.98L116.886 1019.61L155.851 846.028H101.149ZM777.894 872.476C821.665 872.454 864.194 874.204 903.904 878.217L910.592 924.62C834.014 915.146 719.163 907.438 644.728 917.378L644.416 877.371C689.106 874.293 734.122 872.498 777.894 872.476ZM405.984 970.808C338.766 971.009 254.377 984.76 148.361 1014.92L132.244 1019.5L551.374 1016.67V1002.5C515.131 981.947 467.843 970.625 405.986 970.808H405.984ZM706.024 984.59C662.205 984.739 623.18 987.802 591.546 993.925V1016.39L987.985 1013.71C889.046 994.432 789.007 984.306 706.026 984.59H706.024ZM58.0392 1060.33V1100.51H1084.89V1060.33H58.0392Z" fill="#42668B"/>
<path d="M713.458 46.1055C742.801 120.025 742.799 120.027 701.269 187.855C775.189 158.512 775.193 158.51 843.019 200.037C813.676 126.117 813.673 126.119 855.2 58.2915C781.281 87.637 781.285 87.6348 713.458 46.1055ZM252.301 84.8735C225.942 131.841 225.942 131.841 172.555 138.932C219.522 165.293 219.522 165.291 226.614 218.681C252.973 171.713 252.973 171.713 306.36 164.622C259.393 138.263 259.393 138.263 252.301 84.8735ZM423.181 210.292C421.056 323.218 421.061 323.218 329.446 389.275C442.37 391.396 442.372 391.396 508.43 483.009C510.55 370.082 510.55 370.082 602.163 304.025C489.237 301.904 489.237 301.904 423.179 210.292H423.181ZM849.941 335.042C849.839 388.9 849.834 388.896 806.686 421.128C860.544 421.233 860.544 421.23 892.776 464.378C892.881 410.522 892.879 410.525 936.027 378.293C882.171 378.188 882.173 378.19 849.941 335.042ZM439.01 522.286C436.352 522.339 433.742 522.442 431.215 522.585C389.715 524.96 337.754 541.372 258.337 572.936L169.68 967.875C344.884 921.591 466.505 918.968 551.377 957.573V552.957C511.026 533.284 480.412 523.047 447.114 522.292C444.414 522.237 441.713 522.236 439.013 522.288L439.01 522.286ZM712.879 547.778C706.37 547.72 699.91 547.803 693.874 547.997C665.278 548.928 632.178 552.941 591.546 558.091V953.505C688.795 936.038 830.065 944.13 973.81 970.395L885.01 574.842C804.863 556.158 758.688 548.256 712.879 547.78V547.778ZM717.989 585.615C760.155 586.071 800.253 591.794 837.878 596.821L847.783 633.705C794.699 625.334 700.528 622.754 641.371 631.518L639.951 591.772C666.647 586.964 692.689 585.343 717.989 585.615ZM158.842 596.013L135.142 698.707H188.926L211.977 596.013H158.842ZM930.944 596.013L1024.66 1013.46L1075.09 1013.12L983.887 596.013H930.944ZM754.913 725.083C792.846 725.141 830.074 726.849 864.621 730.046L872.487 768.383C799.615 761.507 710.469 761.934 642.574 768.383L640.991 730.046C678.344 726.624 716.978 725.028 754.913 725.083ZM125.874 738.879L110.417 805.856H164.871L179.906 738.879H125.874ZM738.45 799.695C748.844 799.742 759.628 799.885 771.3 800.148L777.004 839.208C732.425 838.157 671.83 840.459 643.674 841.552L642.112 801.405C679.621 800.304 707.27 799.557 738.45 799.695ZM831.036 800.693C849.492 800.787 868.308 801.438 884.881 800.847L890.64 840.447C871.324 839.751 835.123 838.595 819.064 839.327L812.798 800.856C818.876 800.705 824.956 800.651 831.036 800.693ZM101.149 846.028L61.0014 1019.98L116.886 1019.61L155.851 846.028H101.149ZM777.894 872.476C821.665 872.454 864.194 874.204 903.904 878.217L910.592 924.62C834.014 915.146 719.163 907.438 644.728 917.378L644.416 877.371C689.106 874.293 734.122 872.498 777.894 872.476ZM405.984 970.808C338.766 971.009 254.377 984.76 148.361 1014.92L132.244 1019.5L551.374 1016.67V1002.5C515.131 981.947 467.843 970.625 405.986 970.808H405.984ZM706.024 984.59C662.205 984.739 623.18 987.802 591.546 993.925V1016.39L987.985 1013.71C889.046 994.432 789.007 984.306 706.026 984.59H706.024ZM58.0392 1060.33V1100.51H1084.89V1060.33H58.0392Z" fill="url(#paint0_linear_275_2)"/>
<defs>
<linearGradient id="paint0_linear_275_2" x1="571.462" y1="46.1055" x2="571.462" y2="1100.51" gradientUnits="userSpaceOnUse">
<stop offset="0.4" stop-color="#F2EB27"/>
<stop offset="1" stop-color="white" stop-opacity="0"/>
</linearGradient>
</defs>
</svg>
